<svg width="24" height="24" viewBox="0 0 24 24" fill="none" xmlns="http://www.w3.org/2000/svg">
<g clip-path="url(#clip0_1765_3082)">
<path d="M12.0029 6.00098C12.2018 6.00098 12.3926 6.07999 12.5333 6.22065C12.6739 6.3613 12.7529 6.55206 12.7529 6.75098V11.251H17.2529C17.4518 11.251 17.6426 11.33 17.7833 11.4706C17.9239 11.6113 18.0029 11.8021 18.0029 12.001C18.0029 12.1999 17.9239 12.3907 17.7833 12.5313C17.6426 12.672 17.4518 12.751 17.2529 12.751H12.7529V17.251C12.7529 17.4499 12.6739 17.6407 12.5333 17.7813C12.3926 17.922 12.2018 18.001 12.0029 18.001C11.804 18.001 11.6133 17.922 11.4726 17.7813C11.3319 17.6407 11.2529 17.4499 11.2529 17.251V12.751H6.75293C6.55402 12.751 6.36325 12.672 6.2226 12.5313C6.08195 12.3907 6.00293 12.1999 6.00293 12.001C6.00293 11.8021 6.08195 11.6113 6.2226 11.4706C6.36325 11.33 6.55402 11.251 6.75293 11.251H11.2529V6.75098C11.2529 6.55206 11.3319 6.3613 11.4726 6.22065C11.6133 6.07999 11.804 6.00098 12.0029 6.00098Z" fill="white"/>
</g>
<defs>
<clipPath id="clip0_1765_3082">
<rect width="24" height="24" fill="white"/>
</clipPath>
</defs>
</svg>
