<svg width="16" height="17" viewBox="0 0 16 17" fill="none" xmlns="http://www.w3.org/2000/svg">
<g clip-path="url(#clip0_2124_3911)">
<g clip-path="url(#clip1_2124_3911)">
<path d="M12.1656 9.43927C11.6416 10.5013 10.9316 11.5593 10.2056 12.5093C9.51693 13.4049 8.78053 14.2628 7.99963 15.0793C7.21872 14.2628 6.48232 13.4049 5.79363 12.5093C5.06763 11.5593 4.35763 10.5013 3.83363 9.43927C3.30363 8.36627 2.99963 7.36127 2.99963 6.49927C2.99963 5.17319 3.52642 3.90142 4.4641 2.96373C5.40178 2.02605 6.67355 1.49927 7.99963 1.49927C9.32572 1.49927 10.5975 2.02605 11.5352 2.96373C12.4728 3.90142 12.9996 5.17319 12.9996 6.49927C12.9996 7.36127 12.6946 8.36627 12.1656 9.43927ZM7.99963 16.4993C7.99963 16.4993 13.9996 10.8133 13.9996 6.49927C13.9996 4.90797 13.3675 3.38184 12.2423 2.25663C11.1171 1.13141 9.59093 0.499268 7.99963 0.499268C6.40833 0.499268 4.88221 1.13141 3.75699 2.25663C2.63177 3.38184 1.99963 4.90797 1.99963 6.49927C1.99963 10.8133 7.99963 16.4993 7.99963 16.4993Z" fill="#212529"/>
<path d="M7.99963 8.49927C7.4692 8.49927 6.96049 8.28855 6.58542 7.91348C6.21035 7.53841 5.99963 7.0297 5.99963 6.49927C5.99963 5.96883 6.21035 5.46013 6.58542 5.08505C6.96049 4.70998 7.4692 4.49927 7.99963 4.49927C8.53007 4.49927 9.03877 4.70998 9.41385 5.08505C9.78892 5.46013 9.99963 5.96883 9.99963 6.49927C9.99963 7.0297 9.78892 7.53841 9.41385 7.91348C9.03877 8.28855 8.53007 8.49927 7.99963 8.49927ZM7.99963 9.49927C8.79528 9.49927 9.55835 9.1832 10.121 8.62059C10.6836 8.05798 10.9996 7.29492 10.9996 6.49927C10.9996 5.70362 10.6836 4.94056 10.121 4.37795C9.55835 3.81534 8.79528 3.49927 7.99963 3.49927C7.20398 3.49927 6.44092 3.81534 5.87831 4.37795C5.3157 4.94056 4.99963 5.70362 4.99963 6.49927C4.99963 7.29492 5.3157 8.05798 5.87831 8.62059C6.44092 9.1832 7.20398 9.49927 7.99963 9.49927Z" fill="#212529"/>
</g>
</g>
<defs>
<clipPath id="clip0_2124_3911">
<rect width="16" height="16" fill="white" transform="translate(0 0.5)"/>
</clipPath>
<clipPath id="clip1_2124_3911">
<rect width="16" height="16" fill="white" transform="translate(0 0.5)"/>
</clipPath>
</defs>
</svg>
