<svg width="24" height="24" viewBox="0 0 24 24" fill="none" xmlns="http://www.w3.org/2000/svg">
<g clip-path="url(#clip0_1_12370)">
<path fill-rule="evenodd" clip-rule="evenodd" d="M20.784 3.22034C20.8539 3.29001 20.9093 3.37277 20.9471 3.46389C20.9849 3.55501 21.0044 3.65269 21.0044 3.75134C21.0044 3.84999 20.9849 3.94767 20.9471 4.03879C20.9093 4.12991 20.8539 4.21267 20.784 4.28234L4.28405 20.7823C4.14322 20.9232 3.95221 21.0023 3.75305 21.0023C3.55389 21.0023 3.36288 20.9232 3.22205 20.7823C3.08122 20.6415 3.0021 20.4505 3.0021 20.2513C3.0021 20.0522 3.08122 19.8612 3.22205 19.7203L19.722 3.22034C19.7917 3.1505 19.8745 3.09508 19.9656 3.05727C20.0567 3.01946 20.1544 3 20.253 3C20.3517 3 20.4494 3.01946 20.5405 3.05727C20.6316 3.09508 20.7144 3.1505 20.784 3.22034Z" fill="#525252"/>
<path fill-rule="evenodd" clip-rule="evenodd" d="M3.22205 3.22034C3.1522 3.29001 3.09679 3.37277 3.05898 3.46389C3.02117 3.55501 3.00171 3.65269 3.00171 3.75134C3.00171 3.84999 3.02117 3.94767 3.05898 4.03879C3.09679 4.12991 3.1522 4.21267 3.22205 4.28234L19.722 20.7823C19.8629 20.9232 20.0539 21.0023 20.253 21.0023C20.4522 21.0023 20.6432 20.9232 20.784 20.7823C20.9249 20.6415 21.004 20.4505 21.004 20.2513C21.004 20.0522 20.9249 19.8612 20.784 19.7203L4.28405 3.22034C4.21438 3.1505 4.13162 3.09508 4.0405 3.05727C3.94938 3.01946 3.8517 3 3.75305 3C3.6544 3 3.55672 3.01946 3.4656 3.05727C3.37448 3.09508 3.29172 3.1505 3.22205 3.22034Z" fill="#525252"/>
</g>
<defs>
<clipPath id="clip0_1_12370">
<rect width="24" height="24" fill="white"/>
</clipPath>
</defs>
</svg>
