<svg width="64" height="64" viewBox="0 0 64 64" fill="none" xmlns="http://www.w3.org/2000/svg">
<rect width="64" height="64" rx="31" fill="#FA5A7D"/>
<g clip-path="url(#clip0_2124_8697)">
<path d="M17.6284 17.6304C17.8275 17.4309 18.0639 17.2726 18.3242 17.1646C18.5845 17.0566 18.8635 17.001 19.1453 17.001C19.4271 17.001 19.7062 17.0566 19.9664 17.1646C20.2267 17.2726 20.4632 17.4309 20.6622 17.6304L32 28.9726L43.3379 17.6304C43.5371 17.4312 43.7736 17.2732 44.0339 17.1654C44.2941 17.0576 44.5731 17.0021 44.8548 17.0021C45.1365 17.0021 45.4154 17.0576 45.6757 17.1654C45.936 17.2732 46.1724 17.4312 46.3716 17.6304C46.5708 17.8296 46.7288 18.0661 46.8367 18.3263C46.9445 18.5866 46.9999 18.8656 46.9999 19.1473C46.9999 19.429 46.9445 19.7079 46.8367 19.9682C46.7288 20.2284 46.5708 20.4649 46.3716 20.6641L35.0295 32.002L46.3716 43.3399C46.5708 43.5391 46.7288 43.7756 46.8367 44.0358C46.9445 44.2961 46.9999 44.575 46.9999 44.8567C46.9999 45.1384 46.9445 45.4174 46.8367 45.6777C46.7288 45.9379 46.5708 46.1744 46.3716 46.3736C46.1724 46.5728 45.936 46.7308 45.6757 46.8386C45.4154 46.9464 45.1365 47.0019 44.8548 47.0019C44.5731 47.0019 44.2941 46.9464 44.0339 46.8386C43.7736 46.7308 43.5371 46.5728 43.3379 46.3736L32 35.0314L20.6622 46.3736C20.463 46.5728 20.2265 46.7308 19.9662 46.8386C19.706 46.9464 19.427 47.0019 19.1453 47.0019C18.8636 47.0019 18.5847 46.9464 18.3244 46.8386C18.0641 46.7308 17.8276 46.5728 17.6284 46.3736C17.4293 46.1744 17.2712 45.9379 17.1634 45.6777C17.0556 45.4174 17.0001 45.1384 17.0001 44.8567C17.0001 44.575 17.0556 44.2961 17.1634 44.0358C17.2712 43.7756 17.4293 43.5391 17.6284 43.3399L28.9706 32.002L17.6284 20.6641C17.4289 20.4651 17.2706 20.2287 17.1626 19.9684C17.0546 19.7081 16.999 19.4291 16.999 19.1473C16.999 18.8655 17.0546 18.5864 17.1626 18.3261C17.2706 18.0658 17.4289 17.8294 17.6284 17.6304Z" fill="white"/>
</g>
<defs>
<clipPath id="clip0_2124_8697">
<rect width="48" height="48" fill="white" transform="translate(8 8)"/>
</clipPath>
</defs>
</svg>
