<svg width="32" height="32" viewBox="0 0 32 32" fill="none" xmlns="http://www.w3.org/2000/svg">
<g clip-path="url(#clip0_2124_3341)">
<path d="M22.0039 4.00098C22.0039 3.47054 22.2146 2.96184 22.5897 2.58676C22.9648 2.21169 23.4735 2.00098 24.0039 2.00098H28.0039C28.5343 2.00098 29.043 2.21169 29.4181 2.58676C29.7932 2.96184 30.0039 3.47054 30.0039 4.00098V28.001H31.0039C31.2691 28.001 31.5235 28.1063 31.711 28.2939C31.8986 28.4814 32.0039 28.7358 32.0039 29.001C32.0039 29.2662 31.8986 29.5205 31.711 29.7081C31.5235 29.8956 31.2691 30.001 31.0039 30.001H1.00391C0.73869 30.001 0.484336 29.8956 0.296799 29.7081C0.109263 29.5205 0.00390625 29.2662 0.00390625 29.001C0.00390625 28.7358 0.109263 28.4814 0.296799 28.2939C0.484336 28.1063 0.73869 28.001 1.00391 28.001H2.00391V22.001C2.00391 21.4705 2.21462 20.9618 2.58969 20.5868C2.96477 20.2117 3.47347 20.001 4.00391 20.001H8.00391C8.53434 20.001 9.04305 20.2117 9.41812 20.5868C9.79319 20.9618 10.0039 21.4705 10.0039 22.001V28.001H12.0039V14.001C12.0039 13.4705 12.2146 12.9618 12.5897 12.5868C12.9648 12.2117 13.4735 12.001 14.0039 12.001H18.0039C18.5343 12.001 19.043 12.2117 19.4181 12.5868C19.7932 12.9618 20.0039 13.4705 20.0039 14.001V28.001H22.0039V4.00098ZM24.0039 28.001H28.0039V4.00098H24.0039V28.001ZM18.0039 28.001V14.001H14.0039V28.001H18.0039ZM8.00391 28.001V22.001H4.00391V28.001H8.00391Z" fill="white"/>
</g>
<defs>
<clipPath id="clip0_2124_3341">
<rect width="32" height="32" fill="white"/>
</clipPath>
</defs>
</svg>
