<svg width="16" height="17" viewBox="0 0 16 17" fill="none" xmlns="http://www.w3.org/2000/svg">
<g clip-path="url(#clip0_1977_2827)">
<g clip-path="url(#clip1_1977_2827)">
<path d="M16 8.49927C16 10.621 15.1571 12.6558 13.6569 14.1561C12.1566 15.6564 10.1217 16.4993 8 16.4993C5.87827 16.4993 3.84344 15.6564 2.34315 14.1561C0.842855 12.6558 0 10.621 0 8.49927C0 6.37754 0.842855 4.3427 2.34315 2.84241C3.84344 1.34212 5.87827 0.499268 8 0.499268C10.1217 0.499268 12.1566 1.34212 13.6569 2.84241C15.1571 4.3427 16 6.37754 16 8.49927ZM12.03 5.46927C11.9586 5.39809 11.8735 5.34204 11.7799 5.30448C11.6863 5.26692 11.5861 5.24863 11.4853 5.25068C11.3845 5.25273 11.2851 5.2751 11.1932 5.31644C11.1012 5.35777 11.0185 5.41724 10.95 5.49127L7.477 9.91627L5.384 7.82227C5.24183 7.68979 5.05378 7.61766 4.85948 7.62109C4.66518 7.62452 4.47979 7.70323 4.34238 7.84065C4.20497 7.97806 4.12625 8.16344 4.12283 8.35775C4.1194 8.55205 4.19152 8.74009 4.324 8.88227L6.97 11.5293C7.04128 11.6004 7.12616 11.6565 7.21958 11.6941C7.313 11.7318 7.41305 11.7502 7.51375 11.7483C7.61444 11.7465 7.71374 11.7243 7.8057 11.6833C7.89766 11.6422 7.9804 11.583 8.049 11.5093L12.041 6.51927C12.1771 6.37777 12.2523 6.18854 12.2504 5.99223C12.2485 5.79591 12.1698 5.60815 12.031 5.46927H12.03Z" fill="#198754"/>
</g>
</g>
<defs>
<clipPath id="clip0_1977_2827">
<rect y="0.5" width="16" height="16" rx="4" fill="white"/>
</clipPath>
<clipPath id="clip1_1977_2827">
<rect width="16" height="16" fill="white" transform="translate(0 0.5)"/>
</clipPath>
</defs>
</svg>
