<svg width="22" height="22" viewBox="0 0 22 22" fill="none" xmlns="http://www.w3.org/2000/svg">
<g clip-path="url(#clip0_1977_5723)">
<path d="M9.96763 15.3185L3.37313 7.78073C2.59488 6.89385 3.22738 5.50098 4.40851 5.50098H17.5975C17.8618 5.50075 18.1206 5.57672 18.3429 5.7198C18.5652 5.86287 18.7415 6.06698 18.8507 6.30768C18.96 6.54838 18.9976 6.81547 18.9589 7.07697C18.9203 7.33847 18.8071 7.58328 18.6329 7.7821L12.0384 15.3171C11.9093 15.4648 11.7502 15.5832 11.5716 15.6643C11.393 15.7454 11.1991 15.7873 11.003 15.7873C10.8069 15.7873 10.613 15.7454 10.4344 15.6643C10.2559 15.5832 10.0967 15.4648 9.96763 15.3171V15.3185Z" fill="#292929"/>
</g>
<defs>
<clipPath id="clip0_1977_5723">
<rect width="22" height="22" fill="white"/>
</clipPath>
</defs>
</svg>
