<svg width="16" height="17" viewBox="0 0 16 17" fill="none" xmlns="http://www.w3.org/2000/svg">
<g clip-path="url(#clip0_1977_3188)">
<g clip-path="url(#clip1_1977_3188)">
<path d="M9.405 1.54927C8.992 0.149268 7.008 0.149268 6.595 1.54927L6.495 1.88927C6.43329 2.09886 6.32545 2.29199 6.17939 2.45448C6.03333 2.61697 5.85275 2.74471 5.6509 2.82833C5.44904 2.91195 5.23103 2.94933 5.01285 2.93772C4.79466 2.92612 4.58185 2.86583 4.39 2.76127L4.08 2.59127C2.797 1.89327 1.394 3.29627 2.093 4.57827L2.262 4.88927C2.708 5.70927 2.285 6.73027 1.39 6.99427L1.05 7.09427C-0.35 7.50727 -0.35 9.49127 1.05 9.90427L1.39 10.0043C1.59959 10.066 1.79272 10.1738 1.95521 10.3199C2.11771 10.4659 2.24545 10.6465 2.32906 10.8484C2.41268 11.0502 2.45006 11.2682 2.43846 11.4864C2.42685 11.7046 2.36656 11.9174 2.262 12.1093L2.092 12.4193C1.394 13.7023 2.797 15.1053 4.079 14.4063L4.39 14.2373C4.58185 14.1327 4.79466 14.0724 5.01285 14.0608C5.23103 14.0492 5.44904 14.0866 5.6509 14.1702C5.85275 14.2538 6.03333 14.3816 6.17939 14.5441C6.32545 14.7065 6.43329 14.8997 6.495 15.1093L6.595 15.4493C7.008 16.8493 8.992 16.8493 9.405 15.4493L9.505 15.1093C9.56671 14.8997 9.67455 14.7065 9.82061 14.5441C9.96667 14.3816 10.1472 14.2538 10.3491 14.1702C10.551 14.0866 10.769 14.0492 10.9872 14.0608C11.2053 14.0724 11.4182 14.1327 11.61 14.2373L11.92 14.4073C13.203 15.1053 14.606 13.7023 13.907 12.4203L13.738 12.1093C13.6334 11.9174 13.5731 11.7046 13.5615 11.4864C13.5499 11.2682 13.5873 11.0502 13.6709 10.8484C13.7546 10.6465 13.8823 10.4659 14.0448 10.3199C14.2073 10.1738 14.4004 10.066 14.61 10.0043L14.95 9.90427C16.35 9.49127 16.35 7.50727 14.95 7.09427L14.61 6.99427C14.4004 6.93256 14.2073 6.82472 14.0448 6.67866C13.8823 6.5326 13.7546 6.35202 13.6709 6.15016C13.5873 5.94831 13.5499 5.7303 13.5615 5.51211C13.5731 5.29393 13.6334 5.08111 13.738 4.88927L13.908 4.57927C14.606 3.29627 13.203 1.89327 11.921 2.59227L11.61 2.76127C11.4182 2.86583 11.2053 2.92612 10.9872 2.93772C10.769 2.94933 10.551 2.91195 10.3491 2.82833C10.1472 2.74471 9.96667 2.61697 9.82061 2.45448C9.67455 2.29199 9.56671 2.09886 9.505 1.88927L9.405 1.54927ZM8 11.4293C7.22292 11.4293 6.47766 11.1206 5.92818 10.5711C5.3787 10.0216 5.07 9.27635 5.07 8.49927C5.07 7.72218 5.3787 6.97693 5.92818 6.42744C6.47766 5.87796 7.22292 5.56927 8 5.56927C8.77682 5.56927 9.52182 5.87786 10.0711 6.42715C10.6204 6.97645 10.929 7.72145 10.929 8.49827C10.929 9.27509 10.6204 10.0201 10.0711 10.5694C9.52182 11.1187 8.77682 11.4273 8 11.4273V11.4293Z" fill="#FFC107"/>
</g>
</g>
<defs>
<clipPath id="clip0_1977_3188">
<rect y="0.5" width="16" height="16" rx="4" fill="white"/>
</clipPath>
<clipPath id="clip1_1977_3188">
<rect width="16" height="16" fill="white" transform="translate(0 0.5)"/>
</clipPath>
</defs>
</svg>
