<svg width="16" height="17" viewBox="0 0 16 17" fill="none" xmlns="http://www.w3.org/2000/svg">
<g clip-path="url(#clip0_1977_992)">
<g clip-path="url(#clip1_1977_992)">
<path d="M10.0662 1.36922C9.79703 1.09376 9.47551 0.874879 9.12055 0.725442C8.76558 0.576004 8.38433 0.499023 7.9992 0.499023C7.61406 0.499023 7.23281 0.576004 6.87784 0.725442C6.52288 0.874879 6.20137 1.09376 5.9322 1.36922L5.31019 2.00722L4.4202 1.99622C4.03495 1.99166 3.65267 2.06418 3.29586 2.20951C2.93904 2.35484 2.61489 2.57005 2.34245 2.84248C2.07002 3.11491 1.85481 3.43906 1.70948 3.79588C1.56415 4.1527 1.49164 4.53497 1.4962 4.92022L1.5062 5.81022L0.870195 6.43222C0.594736 6.70139 0.375856 7.0229 0.226418 7.37787C0.0769807 7.73283 0 8.11408 0 8.49922C0 8.88436 0.0769807 9.26561 0.226418 9.62057C0.375856 9.97554 0.594736 10.297 0.870195 10.5662L1.5072 11.1882L1.4962 12.0782C1.49164 12.4635 1.56415 12.8457 1.70948 13.2026C1.85481 13.5594 2.07002 13.8835 2.34245 14.156C2.61489 14.4284 2.93904 14.6436 3.29586 14.7889C3.65267 14.9343 4.03495 15.0068 4.4202 15.0022L5.31019 14.9922L5.9322 15.6282C6.20137 15.9037 6.52288 16.1226 6.87784 16.272C7.23281 16.4214 7.61406 16.4984 7.9992 16.4984C8.38433 16.4984 8.76558 16.4214 9.12055 16.272C9.47551 16.1226 9.79703 15.9037 10.0662 15.6282L10.6882 14.9912L11.5782 15.0022C11.9634 15.0068 12.3457 14.9343 12.7025 14.7889C13.0593 14.6436 13.3835 14.4284 13.6559 14.156C13.9284 13.8835 14.1436 13.5594 14.2889 13.2026C14.4342 12.8457 14.5068 12.4635 14.5022 12.0782L14.4922 11.1882L15.1282 10.5662C15.4037 10.297 15.6225 9.97554 15.772 9.62057C15.9214 9.26561 15.9984 8.88436 15.9984 8.49922C15.9984 8.11408 15.9214 7.73283 15.772 7.37787C15.6225 7.0229 15.4037 6.70139 15.1282 6.43222L14.4912 5.81022L14.5022 4.92022C14.5068 4.53497 14.4342 4.1527 14.2889 3.79588C14.1436 3.43906 13.9284 3.11491 13.6559 2.84248C13.3835 2.57005 13.0593 2.35484 12.7025 2.20951C12.3457 2.06418 11.9634 1.99166 11.5782 1.99622L10.6882 2.00622L10.0662 1.37022V1.36922ZM7.9992 4.49922C8.53419 4.49922 8.95319 4.96122 8.89919 5.49422L8.5492 9.00122C8.53744 9.13899 8.4744 9.26733 8.37255 9.36086C8.2707 9.45438 8.13747 9.50627 7.9992 9.50627C7.86092 9.50627 7.72769 9.45438 7.62584 9.36086C7.52399 9.26733 7.46095 9.13899 7.44919 9.00122L7.0992 5.49422C7.08663 5.36845 7.10054 5.24145 7.14004 5.12139C7.17954 5.00132 7.24375 4.89087 7.32854 4.79713C7.41333 4.70339 7.51681 4.62846 7.63232 4.57715C7.74783 4.52584 7.8728 4.49929 7.9992 4.49922ZM8.00119 10.4992C8.26641 10.4992 8.52077 10.6046 8.7083 10.7921C8.89584 10.9796 9.00119 11.234 9.00119 11.4992C9.00119 11.7644 8.89584 12.0188 8.7083 12.2063C8.52077 12.3939 8.26641 12.4992 8.00119 12.4992C7.73598 12.4992 7.48162 12.3939 7.29409 12.2063C7.10655 12.0188 7.00119 11.7644 7.00119 11.4992C7.00119 11.234 7.10655 10.9796 7.29409 10.7921C7.48162 10.6046 7.73598 10.4992 8.00119 10.4992Z" fill="#E31844"/>
</g>
</g>
<defs>
<clipPath id="clip0_1977_992">
<rect y="0.5" width="16" height="16" rx="4" fill="white"/>
</clipPath>
<clipPath id="clip1_1977_992">
<rect width="16" height="16" fill="white" transform="translate(0 0.5)"/>
</clipPath>
</defs>
</svg>
