<svg width="14" height="14" viewBox="0 0 14 14" fill="none" xmlns="http://www.w3.org/2000/svg">
<path fill-rule="evenodd" clip-rule="evenodd" d="M10.3332 12.5003L9.90188 13.009L9.90121 13.0077L9.89854 13.0063L9.89188 12.9997L9.86588 12.9777L9.77455 12.897C9.31889 12.4885 8.89063 12.0504 8.49254 11.5857C8.14254 11.1743 7.77788 10.6903 7.49854 10.1797C7.22321 9.67766 6.99988 9.09499 6.99988 8.50033C6.99988 7.46899 7.35854 6.61699 7.99321 6.02633C8.62054 5.44233 9.45988 5.16699 10.3332 5.16699C11.2065 5.16699 12.0459 5.44233 12.6732 6.02633C13.3079 6.61699 13.6665 7.46899 13.6665 8.50033C13.6665 9.09499 13.4432 9.67766 13.1679 10.1803C12.8879 10.6903 12.5245 11.1743 12.1745 11.5857C11.7497 12.0813 11.2906 12.5464 10.8005 12.9777L10.7752 12.9997L10.7679 13.0063L10.7652 13.0077L10.7645 13.0083L10.3332 12.5003ZM10.3332 12.5003L10.7639 13.009C10.6435 13.1109 10.4909 13.1668 10.3332 13.1668C10.1755 13.1668 10.0223 13.1109 9.90188 13.009L10.3332 12.5003ZM10.3332 9.16699C10.51 9.16699 10.6796 9.09675 10.8046 8.97173C10.9296 8.84671 10.9999 8.67714 10.9999 8.50033C10.9999 8.32351 10.9296 8.15395 10.8046 8.02892C10.6796 7.9039 10.51 7.83366 10.3332 7.83366C10.1564 7.83366 9.98683 7.9039 9.86181 8.02892C9.73678 8.15395 9.66654 8.32351 9.66654 8.50033C9.66654 8.67714 9.73678 8.84671 9.86181 8.97173C9.98683 9.09675 10.1564 9.16699 10.3332 9.16699Z" fill="#FF6B00"/>
<path fill-rule="evenodd" clip-rule="evenodd" d="M13.6667 1.16677C13.6667 1.04607 13.634 0.927635 13.572 0.824094C13.5099 0.720552 13.421 0.63579 13.3146 0.57885C13.2081 0.521911 13.0882 0.494929 12.9677 0.500785C12.8471 0.506641 12.7304 0.545114 12.63 0.6121L9.00004 3.0321L5.37004 0.6121C5.26049 0.539007 5.13174 0.5 5.00004 0.5C4.86834 0.5 4.73959 0.539007 4.63004 0.6121L0.630041 3.27877C0.538763 3.33967 0.463929 3.42215 0.412177 3.51891C0.360426 3.61567 0.333358 3.72371 0.333374 3.83343V11.8334C0.333356 11.9541 0.366104 12.0726 0.428124 12.1761C0.490145 12.2796 0.579111 12.3644 0.685531 12.4214C0.791951 12.4783 0.911832 12.5053 1.03239 12.4994C1.15294 12.4936 1.26964 12.4551 1.37004 12.3881L5.00004 9.9681L5.50004 10.3014C5.33071 9.8301 5.22204 9.33477 5.22204 8.83343C5.22204 7.28677 5.77204 6.0081 6.74537 5.1221C7.70737 4.24677 8.99404 3.83343 10.3334 3.83343C11.558 3.83343 12.7387 4.17877 13.6667 4.90677V1.16677Z" fill="#FF6B00"/>
</svg>
