<svg width="32" height="32" viewBox="0 0 32 32" fill="none" xmlns="http://www.w3.org/2000/svg">
<path fill-rule="evenodd" clip-rule="evenodd" d="M22.0039 30.0012C24.1256 30.0012 26.1605 29.1584 27.6608 27.6581C29.1611 26.1578 30.0039 24.123 30.0039 22.0012C30.0039 19.8795 29.1611 17.8447 27.6608 16.3444C26.1605 14.8441 24.1256 14.0012 22.0039 14.0012C19.8822 14.0012 17.8473 14.8441 16.3471 16.3444C14.8468 17.8447 14.0039 19.8795 14.0039 22.0012C14.0039 24.123 14.8468 26.1578 16.3471 27.6581C17.8473 29.1584 19.8822 30.0012 22.0039 30.0012ZM32.0039 22.0012C32.0039 24.6534 30.9503 27.1969 29.075 29.0723C27.1996 30.9477 24.6561 32.0012 22.0039 32.0012C19.3517 32.0012 16.8082 30.9477 14.9328 29.0723C13.0575 27.1969 12.0039 24.6534 12.0039 22.0012C12.0039 19.3491 13.0575 16.8055 14.9328 14.9302C16.8082 13.0548 19.3517 12.0012 22.0039 12.0012C24.6561 12.0012 27.1996 13.0548 29.075 14.9302C30.9503 16.8055 32.0039 19.3491 32.0039 22.0012Z" fill="white"/>
<path d="M18.8799 23.8892C18.9739 25.0812 19.9159 26.0092 21.6059 26.1212V27.0012H22.3559V26.1152C24.1059 25.9932 25.1279 25.0572 25.1279 23.7012C25.1279 22.4652 24.3479 21.8292 22.9479 21.5012L22.3559 21.3612V18.9612C23.1079 19.0472 23.5839 19.4572 23.6979 20.0252H25.0139C24.9199 18.8752 23.9339 17.9772 22.3559 17.8792V17.0012H21.6059V17.9012C20.1119 18.0472 19.0959 18.9452 19.0959 20.2172C19.0959 21.3412 19.8519 22.0572 21.1099 22.3492L21.6059 22.4712V25.0152C20.8379 24.8992 20.3279 24.4752 20.2139 23.8892H18.8799ZM21.5999 21.1812C20.8619 21.0112 20.4619 20.6612 20.4619 20.1372C20.4619 19.5492 20.8939 19.1092 21.6059 18.9812V21.1812H21.5999ZM22.4639 22.6732C23.3619 22.8812 23.7739 23.2172 23.7739 23.8112C23.7739 24.4892 23.2599 24.9532 22.3559 25.0392V22.6492L22.4639 22.6732Z" fill="white"/>
<path d="M2.00391 0.0012207C1.47347 0.0012207 0.964765 0.211934 0.589693 0.587007C0.21462 0.96208 0.00390625 1.47079 0.00390625 2.00122V18.0012C0.00390625 18.5317 0.21462 19.0404 0.589693 19.4154C0.964765 19.7905 1.47347 20.0012 2.00391 20.0012H10.1699C10.2859 19.3132 10.4599 18.6452 10.6859 18.0012H6.00391C6.00391 16.9404 5.58248 15.9229 4.83233 15.1728C4.08219 14.4226 3.06477 14.0012 2.00391 14.0012V6.00122C3.06477 6.00122 4.08219 5.57979 4.83233 4.82965C5.58248 4.0795 6.00391 3.06209 6.00391 2.00122H26.0039C26.0039 3.06209 26.4253 4.0795 27.1755 4.82965C27.9256 5.57979 28.943 6.00122 30.0039 6.00122V13.0572C30.7639 13.7372 31.4379 14.5132 32.0039 15.3652V2.00122C32.0039 1.47079 31.7932 0.96208 31.4181 0.587007C31.043 0.211934 30.5343 0.0012207 30.0039 0.0012207H2.00391Z" fill="white"/>
<path d="M19.9999 10.1672L20.0039 10.0012C20.0035 9.3124 19.8252 8.63536 19.4863 8.03568C19.1474 7.43599 18.6594 6.93398 18.0696 6.57826C17.4797 6.22254 16.808 6.02517 16.1195 6.00527C15.4309 5.98537 14.7489 6.14361 14.1395 6.46466C13.5301 6.78572 13.0139 7.25871 12.641 7.83782C12.268 8.41693 12.0509 9.08254 12.0107 9.77019C11.9705 10.4578 12.1086 11.1442 12.4115 11.7628C12.7145 12.3814 13.172 12.9114 13.7399 13.3012C15.4674 11.6558 17.6474 10.5644 19.9999 10.1672Z" fill="white"/>
</svg>
