<svg width="16" height="16" viewBox="0 0 16 16" fill="none" xmlns="http://www.w3.org/2000/svg">
<g clip-path="url(#clip0_1_11991)">
<path fill-rule="evenodd" clip-rule="evenodd" d="M1.64567 6.64518C1.69212 6.59862 1.74729 6.56168 1.80804 6.53647C1.86878 6.51127 1.93391 6.49829 1.99967 6.49829C2.06544 6.49829 2.13056 6.51127 2.19131 6.53647C2.25205 6.56168 2.30723 6.59862 2.35367 6.64518L7.99967 12.2922L13.6457 6.64518C13.7396 6.5513 13.8669 6.49855 13.9997 6.49855C14.1324 6.49855 14.2598 6.5513 14.3537 6.64518C14.4476 6.73907 14.5003 6.86641 14.5003 6.99918C14.5003 7.13196 14.4476 7.2593 14.3537 7.35318L8.35367 13.3532C8.30723 13.3997 8.25205 13.4367 8.19131 13.4619C8.13056 13.4871 8.06544 13.5001 7.99967 13.5001C7.93391 13.5001 7.86878 13.4871 7.80804 13.4619C7.74729 13.4367 7.69212 13.3997 7.64567 13.3532L1.64567 7.35318C1.59911 7.30674 1.56217 7.25156 1.53696 7.19082C1.51175 7.13007 1.49878 7.06495 1.49878 6.99918C1.49878 6.93342 1.51175 6.8683 1.53696 6.80755C1.56217 6.74681 1.59911 6.69163 1.64567 6.64518Z" fill="#3D3D3D"/>
<path fill-rule="evenodd" clip-rule="evenodd" d="M1.64567 2.64518C1.69212 2.59862 1.74729 2.56168 1.80804 2.53647C1.86878 2.51127 1.93391 2.49829 1.99967 2.49829C2.06544 2.49829 2.13056 2.51127 2.19131 2.53647C2.25205 2.56168 2.30723 2.59862 2.35367 2.64518L7.99967 8.29218L13.6457 2.64518C13.6922 2.5987 13.7473 2.56182 13.8081 2.53666C13.8688 2.5115 13.9339 2.49855 13.9997 2.49855C14.0654 2.49855 14.1305 2.5115 14.1913 2.53666C14.252 2.56182 14.3072 2.5987 14.3537 2.64518C14.4002 2.69167 14.437 2.74686 14.4622 2.8076C14.4874 2.86834 14.5003 2.93344 14.5003 2.99918C14.5003 3.06493 14.4874 3.13003 14.4622 3.19077C14.437 3.25151 14.4002 3.3067 14.3537 3.35318L8.35367 9.35318C8.30723 9.39975 8.25205 9.43669 8.19131 9.4619C8.13056 9.4871 8.06544 9.50008 7.99967 9.50008C7.93391 9.50008 7.86878 9.4871 7.80804 9.4619C7.74729 9.43669 7.69212 9.39975 7.64567 9.35318L1.64567 3.35318C1.59911 3.30674 1.56217 3.25156 1.53696 3.19082C1.51175 3.13007 1.49878 3.06495 1.49878 2.99918C1.49878 2.93342 1.51175 2.8683 1.53696 2.80755C1.56217 2.74681 1.59911 2.69163 1.64567 2.64518Z" fill="#3D3D3D"/>
</g>
<defs>
<clipPath id="clip0_1_11991">
<rect width="16" height="16" fill="white"/>
</clipPath>
</defs>
</svg>
