<svg width="49" height="48" viewBox="0 0 49 48" fill="none" xmlns="http://www.w3.org/2000/svg">
<g clip-path="url(#clip0_1_13315)">
<path d="M48.5 24.002C48.5 30.3671 45.9714 36.4716 41.4706 40.9725C36.9697 45.4734 30.8652 48.002 24.5 48.002C18.1348 48.002 12.0303 45.4734 7.52944 40.9725C3.02856 36.4716 0.5 30.3671 0.5 24.002C0.5 17.6368 3.02856 11.5323 7.52944 7.03139C12.0303 2.53052 18.1348 0.00195313 24.5 0.00195312C30.8652 0.00195313 36.9697 2.53052 41.4706 7.03139C45.9714 11.5323 48.5 17.6368 48.5 24.002ZM36.59 14.912C36.3757 14.6984 36.1206 14.5303 35.8398 14.4176C35.559 14.3049 35.2584 14.25 34.956 14.2562C34.6535 14.2624 34.3554 14.3294 34.0795 14.4535C33.8035 14.5775 33.5554 14.7559 33.35 14.978L22.931 28.253L16.652 21.971C16.2255 21.5735 15.6613 21.3571 15.0784 21.3674C14.4955 21.3777 13.9394 21.6138 13.5271 22.0261C13.1149 22.4383 12.8788 22.9945 12.8685 23.5774C12.8582 24.1603 13.0746 24.7244 13.472 25.151L21.41 33.092C21.6238 33.3054 21.8785 33.4736 22.1588 33.5865C22.439 33.6994 22.7391 33.7547 23.0412 33.7491C23.3433 33.7435 23.6412 33.6771 23.9171 33.5539C24.193 33.4307 24.4412 33.2532 24.647 33.032L36.623 18.062C37.0313 17.6374 37.2568 17.0698 37.2512 16.4808C37.2456 15.8919 37.0093 15.3286 36.593 14.912H36.59Z" fill="#00BC65"/>
</g>
<defs>
<clipPath id="clip0_1_13315">
<rect width="48" height="48" fill="white" transform="translate(0.5)"/>
</clipPath>
</defs>
</svg>
