<svg width="20" height="20" viewBox="0 0 20 20" fill="none" xmlns="http://www.w3.org/2000/svg">
<g clip-path="url(#clip0_1765_3269)">
<path fill-rule="evenodd" clip-rule="evenodd" d="M10.0024 2.50098C10.1682 2.50098 10.3272 2.56682 10.4444 2.68403C10.5616 2.80125 10.6274 2.96022 10.6274 3.12598V9.37598H16.8774C17.0432 9.37598 17.2022 9.44182 17.3194 9.55903C17.4366 9.67625 17.5024 9.83522 17.5024 10.001C17.5024 10.1667 17.4366 10.3257 17.3194 10.4429C17.2022 10.5601 17.0432 10.626 16.8774 10.626H10.6274V16.876C10.6274 17.0417 10.5616 17.2007 10.4444 17.3179C10.3272 17.4351 10.1682 17.501 10.0024 17.501C9.83668 17.501 9.67771 17.4351 9.5605 17.3179C9.44329 17.2007 9.37744 17.0417 9.37744 16.876V10.626H3.12744C2.96168 10.626 2.80271 10.5601 2.6855 10.4429C2.56829 10.3257 2.50244 10.1667 2.50244 10.001C2.50244 9.83522 2.56829 9.67625 2.6855 9.55903C2.80271 9.44182 2.96168 9.37598 3.12744 9.37598H9.37744V3.12598C9.37744 2.96022 9.44329 2.80125 9.5605 2.68403C9.67771 2.56682 9.83668 2.50098 10.0024 2.50098Z" fill="#989898"/>
</g>
<defs>
<clipPath id="clip0_1765_3269">
<rect width="20" height="20" fill="white"/>
</clipPath>
</defs>
</svg>
