<svg width="23" height="23" viewBox="0 0 23 23" fill="none" xmlns="http://www.w3.org/2000/svg">
<path d="M3.7172 5.76314H8.75799L7.96207 12.2631C7.82942 12.5284 7.69677 12.5284 7.56412 12.5284H2.12537C2.12537 12.1305 2.25802 11.8651 2.25802 11.4672H5.17637V10.5386H0.00292969V11.5998H1.1968C1.06415 12.2631 1.06415 12.9264 0.931497 13.5896H4.77842C5.44168 13.5896 5.83964 13.9876 5.70698 14.6508C4.74367 14.7063 3.83975 15.1345 3.18659 15.8447L3.84985 16.508C4.29228 16.1101 4.83362 15.8385 5.4171 15.7218C6.00059 15.6051 6.60472 15.6476 7.16616 15.8447C8.49268 16.2427 8.89064 17.3039 9.42125 18.4978L10.3498 18.0998C10.1543 17.2961 9.74152 16.5616 9.15662 15.9767C8.57172 15.3918 7.83724 14.979 7.03351 14.7835L6.7682 14.5182C6.77949 14.2032 6.73457 13.8888 6.63555 13.5896C8.37808 13.4369 10.1337 13.617 11.809 14.1202C11.5437 15.4468 11.2784 16.7733 10.8804 18.2325H11.9416L13.1355 13.059H12.7376L10.0845 12.5284C9.2886 12.3958 9.02329 11.9978 9.15595 11.2019C9.09991 10.6571 9.19155 10.1072 9.42125 9.61006C9.96185 8.58952 10.5829 7.61365 11.2784 6.6917C11.3778 6.41843 11.5642 6.1854 11.809 6.02844C12.6154 6.5279 13.3708 7.10551 14.0641 7.75292C14.5539 8.25279 15.2214 8.53887 15.9212 8.54884H16.7171L18.7069 8.81414C18.5653 9.03317 18.3675 9.21022 18.1342 9.32687C17.9009 9.44352 17.6406 9.4955 17.3804 9.4774H15.1253L14.462 9.2121L12.7376 8.15088C12.3056 9.19302 11.8185 10.2115 11.2784 11.2019L13.9314 12.5284C14.3294 12.7937 14.462 12.9264 14.3294 13.3243C14.2319 13.9206 14.0534 14.5008 13.7988 15.0488L13.0029 18.0998L14.0641 18.4978C14.0641 17.8345 14.462 17.7019 14.86 17.5692H15.1253C15.965 17.1963 16.6902 16.6065 17.2264 15.8605C17.7626 15.1144 18.0905 14.2391 18.1763 13.3243C18.3085 12.6676 18.3085 11.9912 18.1763 11.3345H17.1151C17.3822 12.3647 17.2396 13.4584 16.7171 14.3855C16.532 14.8842 16.2488 15.3407 15.8843 15.728C15.5197 16.1153 15.0812 16.4257 14.5947 16.6406V16.11L15.3906 13.457C15.4635 13.1556 15.4385 12.8388 15.3193 12.5526C15.2 12.2664 14.9927 12.0256 14.7273 11.8651C14.6656 11.7828 14.5855 11.7159 14.4934 11.6699C14.4013 11.6238 14.2997 11.5998 14.1967 11.5998L12.6049 10.8039C12.7958 10.4322 13.0176 10.0772 13.2682 9.74271L14.1967 10.2733L14.5947 10.5386H17.6457C17.9753 10.5491 18.3027 10.4827 18.6022 10.3446C18.9016 10.2066 19.1647 10.0006 19.3707 9.74314C19.5767 9.48566 19.7199 9.18373 19.7888 8.8613C19.8578 8.53887 19.8507 8.20479 19.7681 7.88557H19.3702L15.6559 7.35496L14.9927 7.08966L12.0743 4.83457L11.6763 4.56926L9.68655 6.82436C9.81921 6.16109 9.81921 5.49783 9.95186 4.83457H2.12537V6.29375H3.05393C3.05393 5.76314 3.05393 5.76314 3.7172 5.76314Z" fill="#FF6B00"/>
<path d="M22.2885 17.7019H22.5538C22.3858 17.2382 22.103 16.8246 21.7318 16.4999C21.3607 16.1751 20.9133 15.9497 20.4314 15.8447C20.6646 14.9743 20.7142 14.065 20.5772 13.1743C20.4402 12.2837 20.1195 11.4313 19.6355 10.6713L18.8396 11.2019H18.9722C19.6131 12.5194 19.7997 14.012 19.5028 15.4468C19.3702 15.5794 19.3702 15.7121 19.1049 15.8447C18.3856 15.9836 17.7326 16.3568 17.2477 16.9059L18.0437 17.5692C18.3837 17.1428 18.8667 16.8541 19.4033 16.7566C19.9399 16.659 20.4936 16.7592 20.962 17.0386H20.5641L16.7171 19.0284H2.65598C2.68704 18.8049 2.73133 18.5834 2.78863 18.3651C2.78863 18.0998 2.92128 17.9672 3.18659 18.0998H4.11515V17.3039H0.00292969V18.3651H1.72741C1.59476 19.0284 1.59476 19.6916 1.46211 20.3549H2.65598C2.77859 21.082 3.14982 21.7441 3.70626 22.2279C4.26271 22.7118 4.96987 22.9875 5.70698 23.0079C7.16616 23.0079 8.22738 22.212 8.89064 20.3549H16.9824L22.2885 17.7019ZM5.83964 21.9467C5.35765 21.962 4.88483 21.8126 4.49905 21.5233C4.11327 21.234 3.83751 20.8219 3.7172 20.3549H7.69677C7.60864 20.7891 7.37809 21.1815 7.04168 21.4699C6.70527 21.7582 6.28223 21.926 5.83964 21.9467Z" fill="#FF6B00"/>
<path d="M14.3294 4.70192C14.6306 4.72141 14.9325 4.67644 15.2149 4.57001C15.4974 4.46357 15.7538 4.29812 15.9673 4.0847C16.1807 3.87128 16.3461 3.61479 16.4526 3.33235C16.559 3.04991 16.604 2.74802 16.5845 2.44683C16.5854 1.83588 16.3521 1.24782 15.9327 0.803657C15.5132 0.359494 14.9394 0.0930226 14.3294 0.059082C14.0158 0.059082 13.7053 0.120843 13.4156 0.240838C13.1259 0.360834 12.8627 0.536713 12.641 0.758436C12.4193 0.980158 12.2434 1.24338 12.1234 1.53308C12.0034 1.82277 11.9416 2.13326 11.9416 2.44683C11.9411 2.75447 12.0035 3.05897 12.1251 3.34159C12.2466 3.62421 12.4247 3.87898 12.6483 4.09021C12.872 4.30145 13.1365 4.46469 13.4256 4.56988C13.7147 4.67508 14.0223 4.72001 14.3294 4.70192ZM14.3294 1.1203C14.6812 1.1203 15.0186 1.26006 15.2674 1.50883C15.5162 1.7576 15.6559 2.09501 15.6559 2.44683C15.657 2.61542 15.6223 2.78233 15.5542 2.93655C15.486 3.09078 15.386 3.22883 15.2607 3.34162C15.1354 3.45441 14.9876 3.53937 14.8271 3.59092C14.6666 3.64247 14.4969 3.65943 14.3294 3.6407C14.1618 3.65943 13.9922 3.64247 13.8317 3.59092C13.6712 3.53937 13.5234 3.45441 13.3981 3.34162C13.2727 3.22883 13.1727 3.09078 13.1046 2.93655C13.0365 2.78233 13.0018 2.61542 13.0029 2.44683C12.9815 2.26749 13.0012 2.08565 13.0603 1.91499C13.1194 1.74434 13.2165 1.58933 13.3442 1.46162C13.4719 1.33392 13.6269 1.23685 13.7976 1.17773C13.9682 1.1186 14.1501 1.09897 14.3294 1.1203Z" fill="#FF6B00"/>
<path d="M22.5538 18.3651L21.6253 18.8957C22.0232 20.2222 21.7579 21.1508 20.6967 21.6814C19.6355 22.212 18.8396 21.9467 17.7784 20.7529L16.8498 21.1508C17.1062 21.6539 17.4822 22.0863 17.9448 22.4101C18.4074 22.7339 18.9424 22.9392 19.5028 23.0079C20.1062 23.033 20.7056 22.8991 21.2411 22.6197C21.7765 22.3404 22.2292 21.9253 22.5538 21.4161C22.8093 20.9482 22.9431 20.4237 22.9431 19.8906C22.9431 19.3575 22.8093 18.833 22.5538 18.3651Z" fill="#FF6B00"/>
<path d="M1.59476 8.41618C1.62517 8.73186 1.57969 9.05022 1.46211 9.34475H2.52333C2.55903 9.16586 2.6033 8.98879 2.65598 8.81414C2.65598 8.7086 2.69791 8.60737 2.77254 8.53274C2.84717 8.45811 2.94839 8.41618 3.05393 8.41618H6.23759V7.35496H0.00292969V8.41618H1.59476Z" fill="#FF6B00"/>
</svg>
