<svg width="22" height="22" viewBox="0 0 22 22" fill="none" xmlns="http://www.w3.org/2000/svg">
<path d="M13.2979 1.18898L11.003 0.000976562L8.7081 1.18898L6.15335 1.57673L4.9956 3.88673L3.15723 5.70173L3.57798 8.25098L3.15723 10.8002L4.9956 12.6152L6.15335 14.9252L8.7081 15.313L11.003 16.501L13.2979 15.313L15.8526 14.9252L17.0104 12.6152L18.8487 10.8002L18.428 8.25098L18.8487 5.70173L17.0104 3.88673L15.8526 1.57673L13.2979 1.18898ZM14.9424 2.82935L15.8829 4.70623L17.3761 6.18023L17.0351 8.25098L17.3761 10.3217L15.8829 11.7957L14.9424 13.6726L12.8661 13.9875L11.003 14.9527L9.13985 13.9875L7.0636 13.6726L6.1231 11.7957L4.62985 10.3217L4.97223 8.25098L4.62848 6.18023L6.1231 4.70623L7.0636 2.82935L9.13985 2.51448L11.003 1.54923L12.8675 2.51448L14.9424 2.82935Z" fill="#4079ED"/>
<path d="M5.50298 16.2177V22.001L11.003 20.626L16.503 22.001V16.2177L13.7282 16.6385L11.003 18.0492L8.27773 16.6385L5.50298 16.2177Z" fill="#4079ED"/>
</svg>
