<svg width="22" height="22" viewBox="0 0 22 22" fill="none" xmlns="http://www.w3.org/2000/svg">
<path d="M4.41593 4.41398C4.50714 4.32253 4.6155 4.24998 4.7348 4.20047C4.8541 4.15097 4.98199 4.12549 5.11116 4.12549C5.24032 4.12549 5.36821 4.15097 5.48751 4.20047C5.60681 4.24998 5.71517 4.32253 5.80638 4.41398L11.0029 9.61247L16.1994 4.41398C16.2907 4.32268 16.3991 4.25025 16.5184 4.20084C16.6377 4.15143 16.7655 4.126 16.8947 4.126C17.0238 4.126 17.1516 4.15143 17.2709 4.20084C17.3902 4.25025 17.4986 4.32268 17.5899 4.41398C17.6812 4.50527 17.7536 4.61366 17.803 4.73295C17.8524 4.85223 17.8779 4.98009 17.8779 5.1092C17.8779 5.23832 17.8524 5.36617 17.803 5.48546C17.7536 5.60474 17.6812 5.71313 17.5899 5.80443L12.3914 11.001L17.5899 16.1975C17.6812 16.2888 17.7536 16.3972 17.803 16.5165C17.8524 16.6357 17.8779 16.7636 17.8779 16.8927C17.8779 17.0218 17.8524 17.1497 17.803 17.269C17.7536 17.3883 17.6812 17.4966 17.5899 17.5879C17.4986 17.6792 17.3902 17.7517 17.2709 17.8011C17.1516 17.8505 17.0238 17.8759 16.8947 17.8759C16.7655 17.8759 16.6377 17.8505 16.5184 17.8011C16.3991 17.7517 16.2907 17.6792 16.1994 17.5879L11.0029 12.3894L5.80638 17.5879C5.71508 17.6792 5.6067 17.7517 5.48741 17.8011C5.36812 17.8505 5.24027 17.8759 5.11116 17.8759C4.98204 17.8759 4.85419 17.8505 4.7349 17.8011C4.61561 17.7517 4.50723 17.6792 4.41593 17.5879C4.32463 17.4966 4.25221 17.3883 4.2028 17.269C4.15339 17.1497 4.12796 17.0218 4.12796 16.8927C4.12796 16.7636 4.15339 16.6357 4.2028 16.5165C4.25221 16.3972 4.32463 16.2888 4.41593 16.1975L9.61442 11.001L4.41593 5.80443C4.32448 5.71321 4.25193 5.60485 4.20243 5.48556C4.15292 5.36626 4.12744 5.23836 4.12744 5.1092C4.12744 4.98004 4.15292 4.85215 4.20243 4.73285C4.25193 4.61355 4.32448 4.50519 4.41593 4.41398Z" fill="#E31844"/>
</svg>
