<svg width="17" height="16" viewBox="0 0 17 16" fill="none" xmlns="http://www.w3.org/2000/svg">
<path fill-rule="evenodd" clip-rule="evenodd" d="M8.25 16C12.6683 16 16.25 12.4183 16.25 8C16.25 3.58172 12.6683 0 8.25 0C3.83172 0 0.25 3.58172 0.25 8C0.25 12.4183 3.83172 16 8.25 16Z" fill="#17AE30"/>
<path fill-rule="evenodd" clip-rule="evenodd" d="M13.1998 6.29301C13.5904 5.90248 13.5904 5.26932 13.1998 4.8788C12.8093 4.48827 12.1762 4.48827 11.7856 4.8788L6.83588 9.82854L4.71456 7.70722C4.32403 7.3167 3.69087 7.3167 3.30035 7.70722C2.90982 8.09775 2.90982 8.73091 3.30035 9.12144L6.12877 11.9499C6.5193 12.3404 7.15246 12.3404 7.54299 11.9499L13.1998 6.29301Z" fill="white"/>
</svg>
