<svg width="23" height="22" viewBox="0 0 23 22" fill="none" xmlns="http://www.w3.org/2000/svg">
<path d="M0.50293 3.43848C0.50293 3.25614 0.575363 3.08127 0.704294 2.95234C0.833225 2.82341 1.00809 2.75098 1.19043 2.75098H3.25293C3.40629 2.75102 3.55522 2.80233 3.67606 2.89676C3.7969 2.99119 3.88269 3.1233 3.9198 3.2721L4.47668 5.50098H20.4404C20.5449 5.50101 20.6479 5.52482 20.7418 5.57062C20.8356 5.61642 20.9178 5.683 20.9821 5.76531C21.0464 5.84761 21.091 5.94347 21.1127 6.04562C21.1344 6.14777 21.1326 6.25353 21.1073 6.35485L19.0448 14.6049C19.0077 14.7536 18.9219 14.8858 18.8011 14.9802C18.6802 15.0746 18.5313 15.1259 18.3779 15.126H6.00293C5.84957 15.1259 5.70064 15.0746 5.5798 14.9802C5.45896 14.8858 5.37317 14.7536 5.33605 14.6049L2.71668 4.12598H1.19043C1.00809 4.12598 0.833225 4.05354 0.704294 3.92461C0.575363 3.79568 0.50293 3.62081 0.50293 3.43848ZM4.82043 6.87598L6.53918 13.751H17.8417L19.5604 6.87598H4.82043ZM7.37793 17.876C7.01326 17.876 6.66352 18.0208 6.40566 18.2787C6.1478 18.5366 6.00293 18.8863 6.00293 19.251C6.00293 19.6157 6.1478 19.9654 6.40566 20.2232C6.66352 20.4811 7.01326 20.626 7.37793 20.626C7.7426 20.626 8.09234 20.4811 8.3502 20.2232C8.60806 19.9654 8.75293 19.6157 8.75293 19.251C8.75293 18.8863 8.60806 18.5366 8.3502 18.2787C8.09234 18.0208 7.7426 17.876 7.37793 17.876ZM4.62793 19.251C4.62793 18.5216 4.91766 17.8222 5.43339 17.3064C5.94911 16.7907 6.64858 16.501 7.37793 16.501C8.10728 16.501 8.80675 16.7907 9.32247 17.3064C9.8382 17.8222 10.1279 18.5216 10.1279 19.251C10.1279 19.9803 9.8382 20.6798 9.32247 21.1955C8.80675 21.7112 8.10728 22.001 7.37793 22.001C6.64858 22.001 5.94911 21.7112 5.43339 21.1955C4.91766 20.6798 4.62793 19.9803 4.62793 19.251ZM17.0029 17.876C16.6383 17.876 16.2885 18.0208 16.0307 18.2787C15.7728 18.5366 15.6279 18.8863 15.6279 19.251C15.6279 19.6157 15.7728 19.9654 16.0307 20.2232C16.2885 20.4811 16.6383 20.626 17.0029 20.626C17.3676 20.626 17.7173 20.4811 17.9752 20.2232C18.2331 19.9654 18.3779 19.6157 18.3779 19.251C18.3779 18.8863 18.2331 18.5366 17.9752 18.2787C17.7173 18.0208 17.3676 17.876 17.0029 17.876ZM14.2529 19.251C14.2529 18.5216 14.5427 17.8222 15.0584 17.3064C15.5741 16.7907 16.2736 16.501 17.0029 16.501C17.7323 16.501 18.4317 16.7907 18.9475 17.3064C19.4632 17.8222 19.7529 18.5216 19.7529 19.251C19.7529 19.9803 19.4632 20.6798 18.9475 21.1955C18.4317 21.7112 17.7323 22.001 17.0029 22.001C16.2736 22.001 15.5741 21.7112 15.0584 21.1955C14.5427 20.6798 14.2529 19.9803 14.2529 19.251Z" fill="#FF3403"/>
</svg>
