<svg width="22" height="22" viewBox="0 0 22 22" fill="none" xmlns="http://www.w3.org/2000/svg">
<path d="M17.5147 5.45964C17.6086 5.36389 17.7206 5.28783 17.8442 5.2359C17.9678 5.18397 18.1005 5.15723 18.2345 5.15723C18.3686 5.15723 18.5013 5.18397 18.6249 5.2359C18.7485 5.28783 18.8605 5.36389 18.9543 5.45964C19.3476 5.85701 19.3531 6.49914 18.9681 6.90339L10.8377 16.5146C10.7454 16.616 10.6334 16.6975 10.5085 16.7541C10.3836 16.8106 10.2485 16.8412 10.1115 16.8437C9.97438 16.8463 9.83822 16.8209 9.71131 16.769C9.58439 16.7172 9.46939 16.64 9.37334 16.5421L4.42609 11.5289C4.2353 11.3343 4.12842 11.0727 4.12842 10.8001C4.12842 10.5276 4.2353 10.266 4.42609 10.0714C4.51993 9.97564 4.63193 9.89958 4.75553 9.84765C4.87913 9.79572 5.01184 9.76898 5.14591 9.76898C5.27997 9.76898 5.41269 9.79572 5.53629 9.84765C5.65988 9.89958 5.77188 9.97564 5.86572 10.0714L10.0622 14.3243L17.4872 5.48989C17.4958 5.47926 17.505 5.46916 17.5147 5.45964Z" fill="#17AE30"/>
</svg>
