<svg width="16" height="16" viewBox="0 0 16 16" fill="none" xmlns="http://www.w3.org/2000/svg">
<g clip-path="url(#clip0_1765_3257)">
<path d="M5.50195 5.50098C5.63456 5.50098 5.76174 5.55366 5.85551 5.64742C5.94927 5.74119 6.00195 5.86837 6.00195 6.00098V12.001C6.00195 12.1336 5.94927 12.2608 5.85551 12.3545C5.76174 12.4483 5.63456 12.501 5.50195 12.501C5.36934 12.501 5.24217 12.4483 5.1484 12.3545C5.05463 12.2608 5.00195 12.1336 5.00195 12.001V6.00098C5.00195 5.86837 5.05463 5.74119 5.1484 5.64742C5.24217 5.55366 5.36934 5.50098 5.50195 5.50098ZM8.00195 5.50098C8.13456 5.50098 8.26174 5.55366 8.35551 5.64742C8.44928 5.74119 8.50195 5.86837 8.50195 6.00098V12.001C8.50195 12.1336 8.44928 12.2608 8.35551 12.3545C8.26174 12.4483 8.13456 12.501 8.00195 12.501C7.86934 12.501 7.74217 12.4483 7.6484 12.3545C7.55463 12.2608 7.50195 12.1336 7.50195 12.001V6.00098C7.50195 5.86837 7.55463 5.74119 7.6484 5.64742C7.74217 5.55366 7.86934 5.50098 8.00195 5.50098ZM11.002 6.00098C11.002 5.86837 10.9493 5.74119 10.8555 5.64742C10.7617 5.55366 10.6346 5.50098 10.502 5.50098C10.3693 5.50098 10.2422 5.55366 10.1484 5.64742C10.0546 5.74119 10.002 5.86837 10.002 6.00098V12.001C10.002 12.1336 10.0546 12.2608 10.1484 12.3545C10.2422 12.4483 10.3693 12.501 10.502 12.501C10.6346 12.501 10.7617 12.4483 10.8555 12.3545C10.9493 12.2608 11.002 12.1336 11.002 12.001V6.00098Z" fill="#7C7C7C"/>
<path fill-rule="evenodd" clip-rule="evenodd" d="M14.502 3.00098C14.502 3.26619 14.3966 3.52055 14.2091 3.70808C14.0215 3.89562 13.7672 4.00098 13.502 4.00098H13.002V13.001C13.002 13.5314 12.7912 14.0401 12.4162 14.4152C12.0411 14.7903 11.5324 15.001 11.002 15.001H5.00195C4.47152 15.001 3.96281 14.7903 3.58774 14.4152C3.21267 14.0401 3.00195 13.5314 3.00195 13.001V4.00098H2.50195C2.23674 4.00098 1.98238 3.89562 1.79485 3.70808C1.60731 3.52055 1.50195 3.26619 1.50195 3.00098V2.00098C1.50195 1.73576 1.60731 1.48141 1.79485 1.29387C1.98238 1.10633 2.23674 1.00098 2.50195 1.00098H6.00195C6.00195 0.73576 6.10731 0.481406 6.29485 0.29387C6.48238 0.106333 6.73674 0.000976563 7.00195 0.000976562H9.00195C9.26717 0.000976563 9.52152 0.106333 9.70906 0.29387C9.8966 0.481406 10.002 0.73576 10.002 1.00098H13.502C13.7672 1.00098 14.0215 1.10633 14.2091 1.29387C14.3966 1.48141 14.502 1.73576 14.502 2.00098V3.00098ZM4.11995 4.00098L4.00195 4.05998V13.001C4.00195 13.2662 4.10731 13.5205 4.29485 13.7081C4.48238 13.8956 4.73674 14.001 5.00195 14.001H11.002C11.2672 14.001 11.5215 13.8956 11.7091 13.7081C11.8966 13.5205 12.002 13.2662 12.002 13.001V4.05998L11.884 4.00098H4.11995ZM2.50195 3.00098V2.00098H13.502V3.00098H2.50195Z" fill="#7C7C7C"/>
</g>
<defs>
<clipPath id="clip0_1765_3257">
<rect width="16" height="16" fill="white"/>
</clipPath>
</defs>
</svg>
